<svg width="14" height="14" viewBox="0 0 14 14" fill="none" xmlns="http://www.w3.org/2000/svg">
    <path fill-rule="evenodd" clip-rule="evenodd" d="M1.39999 4.19994L1.40005 9.79996C1.40005 10.3968 1.84376 11.0843 2.88522 11.6629C3.90297 12.2283 5.3564 12.5999 7.00003 12.5999C8.64366 12.5999 10.0971 12.2283 11.1148 11.6629C12.1563 11.0843 12.6 10.3968 12.6 9.79996V4.19998H14V9.79996C14 11.1361 13.0334 12.1986 11.7947 12.8867C10.5323 13.5881 8.83578 13.9999 7.00003 13.9999C5.16428 13.9999 3.46772 13.5881 2.20533 12.8867C0.966642 12.1986 5.75361e-05 11.1361 5.75361e-05 9.79996L0 4.20002L1.39999 4.19994Z" fill="#9E813A"/>
    <path fill-rule="evenodd" clip-rule="evenodd" d="M2.88517 8.86293C3.90291 9.42834 5.35634 9.79996 6.99997 9.79996C8.6436 9.79996 10.097 9.42834 11.1148 8.86293C12.1562 8.28434 12.5999 7.59682 12.5999 6.99997H13.9999C13.9999 8.33611 13.0334 9.39858 11.7947 10.0867C10.5323 10.7881 8.83572 11.2 6.99997 11.2C5.16422 11.2 3.46766 10.7881 2.20527 10.0867C0.966584 9.39858 0 8.33611 0 6.99997H1.39999C1.39999 7.59682 1.84371 8.28434 2.88517 8.86293Z" fill="#9E813A"/>
    <path fill-rule="evenodd" clip-rule="evenodd" d="M2.88517 2.33703C1.84371 2.91561 1.39999 3.6031 1.39999 4.19994C1.39999 4.79679 1.84371 5.48435 2.88517 6.06294C3.90291 6.62835 5.35634 6.99997 6.99997 6.99997C8.6436 6.99997 10.097 6.62835 11.1148 6.06294C12.1562 5.48435 12.6 4.79683 12.6 4.19998C12.6 3.60314 12.1562 2.91561 11.1148 2.33703C10.097 1.77161 8.6436 1.39999 6.99997 1.39999C5.35634 1.39999 3.90291 1.77161 2.88517 2.33703ZM2.20527 1.11321C3.46766 0.41188 5.16422 0 6.99997 0C8.83572 0 10.5323 0.41188 11.7947 1.11321C13.0334 1.80137 14 2.86384 14 4.19998C14 5.53613 13.0334 6.5986 11.7947 7.28675C10.5323 7.98809 8.83572 8.39997 6.99997 8.39997C5.16422 8.39997 3.46766 7.98809 2.20527 7.28675C0.966584 6.5986 0 5.53617 0 4.20002C0 2.86388 0.966584 1.80137 2.20527 1.11321Z" fill="#9E813A"/>
</svg>
