<svg width="30" height="30" viewBox="0 0 30 30" fill="none" xmlns="http://www.w3.org/2000/svg">
    <path d="M22.3744 20.1327L17.8463 15.4604C17.2121 16.4734 15.2511 18.5221 12.481 18.6133C9.71081 18.7044 7.97818 16.7266 7.45814 15.7263L10.6164 12.6494H6.31659C6.25317 12.3202 6.30898 11.3047 7.03957 9.87643C7.77017 8.44815 8.81532 7.66057 9.24658 7.44531L12.481 10.7121V6.41968C12.8869 6.36903 14.0183 6.44247 15.2968 7.14142C16.5753 7.84037 17.377 8.87613 17.618 9.30664L14.3455 12.4975H25V1.82334L22.1842 4.63433C21.106 3.08955 17.656 0 12.481 0H1.71233L4.64231 2.92494C3.09488 4.02655 0 7.51369 0 12.6494V23.2476L2.89193 20.4366C3.81786 21.8801 7.06241 24.8126 12.6332 24.995C17.5647 25.1469 21.1821 21.8168 22.3744 20.1327Z" fill="#4285F4"/>
    <circle cx="22" cy="22" r="8" fill="#1C3AA9"/>
    <path fill-rule="evenodd" clip-rule="evenodd" d="M27.5 20.5L21 27L16.5 22.5L18.5 20.5L21 23L25.5 18.5L27.5 20.5Z" fill="white"/>
</svg>