<svg width="14" height="14" viewBox="0 0 14 14" fill="none" xmlns="http://www.w3.org/2000/svg">
    <path fill-rule="evenodd" clip-rule="evenodd" d="M12.4837 7L10.5998 3.86015L11.8002 3.13985L13.9002 6.63985C14.0333 6.86153 14.0333 7.13847 13.9002 7.36014L11.8002 10.8601L10.5998 10.1398L12.4837 7Z" fill="#1C3AA9"/>
    <path fill-rule="evenodd" clip-rule="evenodd" d="M6.3 6.3H12.6V7.7H6.3V6.3Z" fill="#1C3AA9"/>
    <path fill-rule="evenodd" clip-rule="evenodd" d="M0.271926 0.553486C0.506704 0.227406 0.891856 0 1.4 0H7.7C8.20814 0 8.59329 0.227406 8.82807 0.553486C9.03715 0.843874 9.1 1.17132 9.1 1.4V3.5H7.7L7.69967 1.40016L1.40035 1.4L1.4 12.5996L7.7 12.597V10.5H9.1V12.6C9.1 12.8287 9.03715 13.1561 8.82807 13.4465C8.59329 13.7726 8.20814 14 7.7 14H1.4C1.17132 14 0.843874 13.9371 0.553486 13.7281C0.227406 13.4933 0 13.1081 0 12.6V1.4C0 1.17132 0.0628466 0.843874 0.271926 0.553486Z" fill="#1C3AA9"/>
</svg>
