<svg width="14" height="14" viewBox="0 0 14 14" fill="none" xmlns="http://www.w3.org/2000/svg">
    <path fill-rule="evenodd" clip-rule="evenodd" d="M1.56923 7.59573C2.73315 6.64344 4.52697 6.3 7 6.3C9.40138 6.3 11.1874 6.64569 12.3668 7.5914C13.5918 8.57378 14 10.062 14 11.9V12.1899L13.795 12.395C13.4373 12.7527 12.7071 13.1441 11.6363 13.4484C10.5381 13.7603 9.01428 14 7 14C4.98572 14 3.46188 13.7603 2.36371 13.4484C1.2929 13.1441 0.562722 12.7527 0.205025 12.395L0 12.1899V11.9C0 10.0804 0.360213 8.58493 1.56923 7.59573ZM1.40498 11.5585C1.64215 11.7038 2.07063 11.9097 2.74629 12.1016C3.70146 12.373 5.09428 12.6 7 12.6C8.90572 12.6 10.2985 12.373 11.2537 12.1016C11.9289 11.9098 12.3572 11.7042 12.5945 11.5589C12.546 10.1042 12.1779 9.23445 11.4909 8.6836C10.7062 8.05431 9.3422 7.7 7 7.7C4.57303 7.7 3.21685 8.05656 2.45577 8.67927C1.78977 9.22417 1.44928 10.0881 1.40498 11.5585Z" fill="#2F2F2F"/>
    <path fill-rule="evenodd" clip-rule="evenodd" d="M7 1.4C5.91543 1.4 4.9 2.41712 4.9 3.85C4.9 5.28288 5.91543 6.3 7 6.3C8.08457 6.3 9.1 5.28288 9.1 3.85C9.1 2.41712 8.08457 1.4 7 1.4ZM3.5 3.85C3.5 1.80349 4.99177 0 7 0C9.00823 0 10.5 1.80349 10.5 3.85C10.5 5.89651 9.00823 7.7 7 7.7C4.99177 7.7 3.5 5.89651 3.5 3.85Z" fill="#2F2F2F"/>
</svg>
